<?xml version="1.0" encoding="utf-8"?>
<!-- Generator: Adobe Illustrator 25.2.1, SVG Export Plug-In . SVG Version: 6.00 Build 0)  -->
<svg version="1.1" id="layer" xmlns="http://www.w3.org/2000/svg" xmlns:xlink="http://www.w3.org/1999/xlink" x="0px" y="0px"
	 viewBox="0 0 600 156" style="enable-background:new 0 0 600 156;" xml:space="preserve">
<style type="text/css">
	.st0{fill:#292A2C;}
</style>
<g>
	<g>
		<path class="st0" d="M30.8,37.5L0,119.7h19.2l5.8-16.8h31.9l5.8,16.8h19.9L52.1,37.5L30.8,37.5L30.8,37.5z M31.1,86.5L41,58.1
			l9.9,28.4H31.1z M149,63.2c0-14.7-10.3-25.7-26.7-25.7H89.7v82.2h18.2V89.2h13.4l14.7,30.5h20.2L136,86.5
			C146.6,82.7,149,74.5,149,63.2z M118.9,73.5h-10.6V53.3h10.6c7.5,0,11.7,3.8,11.7,9.9C130.5,69,126.4,73.5,118.9,73.5z
			 M197.3,103.3c-12.3,0-23.6-8.9-23.6-24.3c0-17.1,12.3-25,23.3-25c14.4,0,19.9,9.6,20.9,15.4l17.1-5.5
			c-2.7-12-13.7-27.8-38.4-27.8c-23,0-42.5,17.5-42.5,43.2s18.8,42.8,42.8,42.8c25.4,0,36.3-17.5,39.1-28.8l-17.5-5.1
			C217.2,93.7,211.4,103.3,197.3,103.3z M297,69.7h-32.9V37.5h-18.2v82.2h18.2V87.1H297v32.6h18.5V37.5H297V69.7z M330.3,119.8h18.5
			V37.6h-18.5V119.8z M423.1,87.9c-1.7,5.8-7.2,15.4-21.6,15.4c-12.3,0-23.6-8.9-23.6-24.3c0-17.1,12.3-25,23.3-25
			c14.4,0,19.9,9.6,20.9,15.4l17.1-5.5c-2.7-12-13.7-27.8-38.4-27.8c-23,0-42.5,17.5-42.5,43.2s18.8,42.8,42.8,42.8
			c25.4,0,36.3-17.5,39.1-28.8L423.1,87.9z M469.4,37.5l-30.8,82.2h19.2l5.8-16.8h31.8l5.8,16.8h19.9l-30.5-82.2L469.4,37.5
			L469.4,37.5z M469.7,86.5l9.9-28.4l9.9,28.4H469.7z M558.5,37.5h-29.8v82.2h29.8c24.7,0,41.5-15.8,41.5-41.1
			C599.6,53.3,583.2,37.5,558.5,37.5z M557.5,102.6h-10.6v-48h10.6c12.7,0,23,7.5,23,24C580.4,95.1,570.1,102.6,557.5,102.6z"/>
	</g>
</g>
</svg>
