<?xml version="1.0" encoding="utf-8"?>
<!-- Generator: Adobe Illustrator 25.2.1, SVG Export Plug-In . SVG Version: 6.00 Build 0)  -->
<svg version="1.1" id="Layer_1" xmlns="http://www.w3.org/2000/svg" xmlns:xlink="http://www.w3.org/1999/xlink" x="0px" y="0px"
	 viewBox="0 0 1271.5 368.9" style="enable-background:new 0 0 1271.5 368.9;" xml:space="preserve">
<style type="text/css">
	.st0{fill:#07A5A0;}
	.st1{font-family:'Facit-Bold';}
	.st2{font-size:232.69px;}
	.st3{letter-spacing:-2;}
	.st4{clip-path:url(#SVGID_2_);}
</style>
<g id="Layer_2_1_">
	<g id="Layer_1-2">
		<text transform="matrix(1 0 0 1 364.26 239.1)" class="st0 st1 st2">pe</text>
		<text transform="matrix(1 0 0 1 625.34 239.1)" class="st0 st1 st2 st3">r</text>
		<text transform="matrix(1 0 0 1 718.42 239.1)" class="st0 st1 st2">sonal</text>
		<g>
			<defs>
				<rect id="SVGID_1_" x="53.4" y="77.4" width="241.3" height="241.3"/>
			</defs>
			<clipPath id="SVGID_2_">
				<use xlink:href="#SVGID_1_"  style="overflow:visible;"/>
			</clipPath>
			<g class="st4">
				<polygon class="st0" points="174.4,217.5 195,196.2 195,196.2 312.9,310.3 312.9,310.3 292.3,331.6 				"/>
				<polygon class="st0" points="41.1,86.8 61.8,65.4 61.8,65.4 179.6,179.5 179.6,179.5 159,200.8 				"/>
				<path class="st0" d="M373.2,263.6l-12.5,12.9c-2.3,2.3-6,2.4-8.3,0.1L90.4,23c-2.3-2.3-2.4-6-0.1-8.3l12.5-12.9
					c2.3-2.3,6-2.4,8.3-0.1l262.1,253.7C375.4,257.6,375.5,261.3,373.2,263.6z"/>
				<path class="st0" d="M229.6,354.2l-12.5,12.9c-2.3,2.3-6,2.4-8.3,0.1L1.8,166.7c-2.3-2.3-2.4-6-0.1-8.3l12.5-12.9
					c2.3-2.3,6-2.4,8.3-0.1l207.1,200.5C231.8,348.1,231.9,351.9,229.6,354.2z"/>
			</g>
		</g>
	</g>
</g>
</svg>
